<?xml version="1.0" standalone="no"?>
<!DOCTYPE svg PUBLIC "-//W3C//DTD SVG 20010904//EN"
 "http://www.w3.org/TR/2001/REC-SVG-20010904/DTD/svg10.dtd">
<svg version="1.0" xmlns="http://www.w3.org/2000/svg"
 width="1280.000000pt" height="330.000000pt" viewBox="0 0 1280.000000 330.000000"
 preserveAspectRatio="xMidYMid meet">
<metadata>
Created by potrace 1.16, written by Peter Selinger 2001-2019
</metadata>
<g transform="translate(0.000000,330.000000) scale(0.100000,-0.100000)"
fill="#000000" stroke="none">
<path d="M4750 2281 c-66 -20 -120 -48 -120 -62 0 -6 -5 -7 -10 -4 -6 4 -9 1
-8 -5 2 -7 -10 -20 -26 -29 -16 -9 -29 -21 -28 -26 0 -6 -9 -22 -19 -36 -22
-31 -40 -73 -46 -109 -10 -53 -12 -856 -2 -898 25 -112 92 -198 195 -248 49
-24 74 -30 147 -33 78 -3 93 0 140 23 115 58 116 80 1 40 -110 -38 -185 -36
-270 6 -76 37 -134 100 -166 179 -23 55 -23 62 -23 476 0 371 2 427 17 476 24
78 90 149 176 191 65 32 69 33 202 33 131 0 137 -1 202 -32 136 -64 190 -154
204 -340 6 -79 4 -91 -14 -113 -18 -23 -27 -25 -126 -28 -169 -7 -206 7 -206
77 0 59 -12 131 -21 131 -5 0 -9 -7 -9 -15 0 -8 -5 -15 -11 -15 -5 0 -7 -5 -3
-11 4 -6 6 -54 5 -105 l-2 -94 213 2 213 3 3 90 c9 273 -85 424 -299 480 -69
19 -243 16 -309 -4z"/>
<path d="M10435 2277 c-142 -38 -227 -124 -255 -261 -14 -70 -7 -142 21 -206
38 -85 105 -135 263 -195 54 -21 114 -51 132 -68 44 -38 60 -94 40 -141 -8
-19 -11 -38 -8 -42 4 -4 1 -4 -5 0 -7 4 -13 3 -13 -2 0 -5 -6 -9 -12 -10 -7
-1 -33 -6 -58 -13 -35 -9 -57 -8 -100 2 l-55 14 -3 70 c-4 96 -14 105 -112
105 -46 0 -81 -5 -88 -12 -17 -17 -17 -308 1 -331 24 -33 131 -52 292 -52 172
0 218 11 300 73 36 27 60 56 85 106 32 64 35 76 35 160 0 74 -5 101 -24 143
-40 90 -130 155 -310 224 -34 13 -79 38 -100 55 -33 29 -36 36 -36 83 0 66 24
92 94 99 27 2 66 1 85 -2 l36 -7 0 -58 c0 -79 15 -91 107 -91 100 0 103 4 103
166 0 89 -4 135 -12 146 -33 42 -300 72 -403 45z m257 -73 c60 -10 78 -35 78
-107 0 -100 -29 -118 -59 -37 -20 56 -64 86 -135 95 -167 21 -280 -121 -208
-262 28 -54 71 -86 170 -128 162 -68 217 -107 254 -179 27 -50 28 -161 4 -219
-24 -56 -80 -112 -139 -138 -46 -21 -66 -24 -187 -24 -115 0 -141 3 -175 20
l-40 20 0 94 c0 66 4 96 12 98 13 5 20 -10 44 -87 12 -39 21 -48 63 -69 65
-33 183 -35 241 -5 95 50 132 161 85 258 -35 73 -66 94 -254 172 -82 34 -160
100 -177 152 -21 63 -14 146 16 207 48 99 135 144 280 144 50 1 107 -2 127 -5z"/>
<path d="M1140 2100 l0 -170 105 0 105 0 0 -535 0 -535 213 2 212 3 0 532 0
532 100 3 100 3 0 165 0 165 -417 3 -418 2 0 -170z m744 84 c11 -11 16 -35 16
-81 0 -79 -16 -103 -67 -103 -18 0 -49 -7 -69 -15 -64 -26 -64 -29 -64 -550 0
-302 -4 -473 -10 -486 -10 -17 -22 -19 -125 -19 -106 0 -115 1 -129 22 -14 20
-16 83 -16 490 0 279 -4 477 -10 492 -14 38 -66 66 -122 66 -60 0 -78 23 -78
100 0 34 6 64 16 78 15 22 16 22 329 22 272 0 316 -2 329 -16z"/>
<path d="M2100 1565 l0 -705 342 2 343 3 0 165 0 165 -123 3 c-95 2 -122 0
-120 -10 4 -17 39 -25 109 -27 80 -2 89 -14 89 -132 0 -144 23 -134 -299 -134
-246 0 -272 2 -288 18 -17 17 -18 56 -18 652 0 595 1 635 18 652 16 16 43 18
244 21 125 2 242 1 260 -3 56 -10 63 -25 63 -133 0 -53 -4 -103 -8 -110 -11
-17 -67 -32 -122 -32 -74 -1 -100 -34 -100 -128 0 -41 5 -63 15 -72 13 -11 15
-1 15 78 l0 91 122 3 123 3 0 165 0 165 -333 3 -332 2 0 -705z"/>
<path d="M2920 1565 l0 -705 320 0 320 0 0 170 0 170 -100 0 c-75 0 -99 -3
-97 -12 2 -15 37 -25 88 -27 58 -2 69 -23 69 -132 0 -143 19 -133 -272 -137
-230 -3 -246 -2 -269 17 l-24 19 0 636 c0 596 1 636 18 653 15 16 36 18 151
18 117 0 136 -2 155 -19 20 -18 20 -27 23 -502 3 -445 4 -485 21 -501 16 -16
17 8 17 520 l0 537 -210 0 -210 0 0 -705z"/>
<path d="M3670 1565 l0 -705 340 0 340 0 -2 167 -3 168 -118 3 c-91 2 -117 0
-115 -10 4 -17 39 -25 110 -27 78 -1 88 -17 88 -136 0 -139 21 -129 -294 -133
l-266 -3 -25 25 -25 25 0 624 c0 600 1 626 19 648 l19 24 255 0 c314 0 297 8
297 -135 0 -117 -8 -129 -96 -136 -33 -3 -69 -7 -82 -10 -55 -11 -84 -136 -42
-185 l19 -24 1 92 0 92 118 3 117 3 0 165 0 165 -327 3 -328 2 0 -705z"/>
<path d="M5520 1566 l0 -706 213 2 212 3 5 298 c3 163 2 297 -1 297 -3 0 -13
-16 -22 -35 -14 -30 -17 -70 -17 -261 l0 -225 -25 -25 c-25 -25 -27 -25 -161
-22 -121 3 -137 5 -150 22 -12 17 -14 122 -14 650 0 347 4 636 8 643 4 6 20
17 35 22 60 23 477 5 559 -24 56 -20 114 -74 139 -130 43 -97 42 -332 -1 -398
-11 -18 -26 -44 -32 -59 -7 -16 -19 -28 -28 -29 -9 0 -10 -3 -3 -5 6 -3 29 4
51 15 69 35 98 132 89 306 -8 183 -58 276 -179 330 l-63 29 -307 4 -308 4 0
-706z"/>
<path d="M6637 2218 c-3 -29 -7 -66 -10 -83 -3 -16 -8 -61 -12 -99 -3 -38 -11
-92 -17 -120 -5 -28 -10 -59 -10 -70 1 -10 -10 -93 -23 -185 -14 -91 -27 -191
-30 -221 -3 -30 -10 -80 -15 -110 -6 -30 -11 -62 -11 -70 -1 -26 -49 -364 -55
-383 -5 -16 8 -17 218 -15 l223 3 9 118 8 117 37 0 c30 1 33 2 18 11 -21 13
-67 4 -67 -13 0 -6 -7 -16 -15 -22 -8 -6 -19 -41 -24 -80 -6 -38 -17 -76 -26
-85 -12 -13 -43 -17 -141 -19 -175 -5 -190 2 -184 93 6 110 163 1203 175 1221
19 29 52 34 240 34 188 0 221 -5 240 -34 22 -34 208 -1255 196 -1283 -13 -29
-53 -36 -191 -31 -133 4 -143 11 -153 108 -8 74 -15 89 -32 66 -8 -11 -10 -30
-5 -59 5 -23 8 -51 8 -62 -1 -11 0 -35 1 -53 l1 -32 218 2 c210 3 217 4 215
23 -3 28 -203 1335 -209 1363 l-4 22 -284 0 -284 0 -5 -52z"/>
<path d="M7500 1565 l0 -705 193 2 192 3 -1 50 c-5 271 -8 381 -13 445 l-6 75
-13 -141 c-6 -77 -12 -190 -12 -250 0 -152 3 -149 -149 -149 -102 0 -123 3
-138 18 -17 17 -18 56 -18 652 0 595 1 635 18 652 15 15 40 19 169 21 184 5
233 -2 253 -31 7 -12 23 -83 35 -157 12 -74 26 -139 31 -145 5 -5 9 -23 9 -40
0 -16 8 -39 16 -50 16 -20 16 -20 9 3 -4 15 -2 22 7 22 9 0 10 3 2 8 -6 4 -14
41 -17 83 -3 42 -13 121 -22 175 -9 55 -18 114 -21 132 l-5 32 -259 0 -260 0
0 -705z"/>
<path d="M8119 2203 c0 -38 -4 -108 -8 -158 -8 -90 -1 -153 12 -110 4 11 11
72 17 135 7 63 18 125 26 137 18 29 66 35 250 31 133 -3 155 -5 173 -22 21
-19 21 -22 21 -651 0 -529 -2 -634 -14 -651 -13 -17 -27 -19 -136 -19 -160 0
-159 -1 -162 169 l-1 121 -7 -90 c-4 -49 -11 -123 -15 -162 l-8 -73 192 0 191
0 0 705 0 705 -265 0 -265 0 -1 -67z"/>
<path d="M9646 2244 c-17 -16 -23 -128 -8 -150 11 -16 48 -34 71 -34 21 0 21
-1 21 -505 0 -444 -2 -509 -16 -546 l-17 -41 -64 4 -64 3 3 -30 c3 -29 4 -30
63 -33 80 -3 122 19 155 84 l25 48 3 451 c2 247 0 479 -3 515 -6 59 -11 69
-46 102 -68 65 -52 78 99 78 88 0 132 -10 132 -30 0 -4 -19 -27 -42 -49 l-43
-40 -5 -528 c-5 -510 -6 -530 -26 -573 -22 -48 -70 -95 -113 -112 -14 -5 -64
-11 -111 -11 l-85 -2 -3 -29 c-5 -39 10 -46 94 -46 106 0 166 22 229 83 90 88
89 76 93 685 l3 522 27 0 c15 0 38 7 50 16 19 13 22 24 22 83 0 103 4 101
-233 101 -164 0 -198 -2 -211 -16z"/>
<path d="M2540 1735 c7 -8 27 -15 44 -15 42 0 98 -17 108 -32 13 -21 10 -192
-4 -211 -9 -11 -33 -19 -68 -23 -79 -8 -106 -21 -121 -57 -19 -46 -16 -164 5
-185 15 -15 16 -8 16 96 l0 111 113 3 112 3 0 160 0 160 -109 3 c-97 2 -108 1
-96 -13z"/>
<path d="M4106 1737 c3 -9 27 -16 65 -20 90 -8 99 -20 99 -131 0 -50 -4 -96
-8 -103 -12 -18 -59 -33 -106 -33 -45 0 -63 -10 -90 -50 -28 -43 -16 -200 16
-200 4 0 8 50 8 110 l0 110 110 0 110 0 -2 163 -3 162 -102 3 c-85 2 -102 0
-97 -11z"/>
<path d="M4916 1636 c4 -11 41 -15 186 -18 175 -3 180 -4 199 -27 18 -22 19
-43 19 -338 l0 -314 -25 -24 c-20 -21 -33 -25 -88 -25 -35 0 -78 5 -96 11 -35
12 -64 -2 -54 -27 4 -11 34 -14 154 -14 l149 0 -2 393 -3 392 -222 3 c-189 2
-222 0 -217 -12z"/>
<path d="M6273 1573 c4 -6 2 -13 -4 -15 -6 -2 2 -25 21 -55 41 -66 53 -162 48
-400 -4 -220 5 -208 -163 -208 -106 0 -127 3 -142 18 -16 16 -18 43 -21 252
-2 129 -7 235 -11 235 -21 0 -26 -64 -23 -292 l2 -248 201 0 200 0 -3 298 -3
299 -30 48 c-16 26 -41 55 -55 64 -13 9 -21 11 -17 4z"/>
<path d="M8260 1377 c0 -24 -4 -47 -9 -52 -5 -6 -11 -28 -14 -50 -3 -22 -10
-60 -15 -85 -5 -25 -15 -91 -22 -148 -16 -130 -25 -144 -109 -150 -114 -8
-129 8 -151 168 -6 41 -13 76 -15 79 -6 5 -9 -38 -5 -54 2 -5 4 -50 6 -100 1
-49 3 -98 3 -108 1 -16 13 -17 149 -15 l147 3 3 50 c2 28 12 129 22 225 23
211 27 280 18 280 -5 0 -8 -19 -8 -43z"/>
</g>
</svg>
